<?xml version="1.0" encoding="UTF-8"?>
<svg width="284px" height="304px" viewBox="0 0 284 304" version="1.1" xmlns="http://www.w3.org/2000/svg" xmlns:xlink="http://www.w3.org/1999/xlink">
    <!-- Generator: Sketch 48.2 (47327) - http://www.bohemiancoding.com/sketch -->
    <title>Koi Large</title>
    <desc>Created with Sketch.</desc>
    <defs></defs>
    <g id="Page-1" stroke="none" stroke-width="1" fill="none" fill-rule="evenodd">
        <g id="Koi-Large">
            <path d="M223.9484,19.0685 C223.9484,19.0685 176.4684,3.0975 139.4974,28.7505 C106.6494,51.5435 121.2124,41.6605 121.2124,41.6605 C121.2124,41.6605 89.9544,24.3795 60.9684,32.5155 C26.5874,42.1685 -0.3536,66.4045 1.2594,66.4045 C2.8724,66.4045 13.6304,59.9475 19.5504,66.9435 C25.4644,73.9335 29.7664,77.7035 33.5324,76.6275 C37.3004,75.5485 46.9794,73.9335 53.4384,79.8535 C59.8914,85.7675 74.9564,90.0705 80.3334,88.9945 C80.3334,88.9945 67.9604,105.6705 66.3464,110.5115 C66.3464,110.5115 37.6184,101.8615 36.2214,133.1035 C35.1184,157.8225 44.3664,167.0975 45.1324,168.6195 C47.4054,173.1305 50.4284,178.3695 55.1164,184.5055 C55.1164,184.5055 59.3524,212.1705 68.4974,216.4765 L87.7704,241.5185 C87.7704,241.5185 101.2604,255.1335 113.0984,259.4365 C124.9284,263.7395 135.2004,267.4525 142.7314,269.7745 C150.0344,272.0245 164.0654,291.2765 178.7644,295.0085 C205.0754,301.6865 210.6634,292.7765 226.8004,294.3915 C242.9344,296.0045 259.8934,304.8095 264.7334,302.6595 C269.5734,300.5105 277.9094,294.5855 271.3824,295.6865 C265.6694,296.6535 255.7194,293.9775 246.5774,286.4485 C237.4324,278.9175 221.1164,264.9875 219.5054,263.9135 C217.8874,262.8375 226.9604,262.1295 231.6614,260.9955 C237.8584,259.4995 241.1474,249.2125 248.5224,244.4585 C260.8444,236.5145 282.8914,239.9195 282.8914,239.1085 C282.8914,234.1475 249.8894,217.5085 202.6434,232.1355 C152.5364,247.6515 149.3054,245.7545 149.3054,245.7545 C149.3054,245.7545 157.7884,237.4545 156.1774,234.7645 C154.5594,232.0735 144.5694,234.8015 138.1124,235.3385 C131.6574,235.8785 122.7664,236.9695 120.9214,235.8625 C115.6734,232.7135 106.4874,217.6245 107.2254,218.0905 C109.8764,219.7625 112.6554,229.1715 134.6594,220.7785 C139.6064,218.8915 145.9714,214.0665 141.1324,214.6055 C136.2884,215.1445 130.6344,214.8675 124.9774,207.8735 C119.3784,200.9455 115.8294,182.0505 114.2194,178.2835 C112.6044,174.5195 109.0304,172.9925 109.0304,172.9925 C109.0304,172.9925 122.2884,145.4725 134.6594,134.7165 C147.0284,123.9575 156.7124,112.1235 159.9384,113.1995 C163.1674,114.2755 186.2984,124.4965 195.4424,125.0335 C204.5854,125.5725 210.5034,121.8085 206.1964,120.7325 C201.8974,119.6525 204.0464,121.2715 214.8034,121.2715 C225.5614,121.2715 245.4664,118.5785 241.1634,116.9665 C236.8584,115.3495 232.0204,113.1995 236.3174,112.6625 C240.6244,112.1235 254.0714,105.1325 257.2984,100.8285 C260.5284,96.5255 262.6774,90.0705 262.6774,90.0705 C262.6774,90.0705 282.5794,83.6175 280.4274,76.6275 C278.2764,69.6295 269.6714,66.9435 269.6714,66.9435 C269.6714,66.9435 269.1304,57.2595 255.1474,61.0255 C241.1634,64.7895 241.7004,69.0935 241.7004,69.0935 L246.0014,83.0785 C246.0014,83.0785 235.7824,91.1465 226.6374,91.1465 C217.4934,91.1465 191.0464,87.5955 191.0464,87.5955 C191.0464,87.5955 201.3604,79.8125 209.4254,70.1295 C217.4954,60.4455 221.6224,53.3045 221.6224,53.3045 C221.6224,53.3045 225.1264,41.6705 227.7184,38.9725 C230.0734,36.5195 231.5594,29.7095 224.5654,31.8575 C217.5754,34.0095 228.7704,28.9125 229.8664,24.9845 C230.9644,21.0395 223.9484,19.0685 223.9484,19.0685" id="Fill-80" fill="#CFD0D0"></path>
            <path d="M259.7236,57.3145 C259.7236,57.3145 250.3466,44.0565 260.5906,32.3755 C266.5946,25.5275 265.6536,20.8145 266.3276,15.6095 C266.3276,15.6095 272.2506,22.2185 266.5926,29.2095 C259.9466,37.4165 256.5776,50.0175 259.7236,57.3145" id="Fill-81" fill="#FFFFFF"></path>
            <path d="M120.0033,42.3458 C120.0033,42.3458 132.1793,36.6328 143.2763,39.7268 C159.8103,44.3358 170.1243,38.6448 176.2923,18.1388 C179.0133,9.0898 135.6183,26.9068 123.4663,40.6368" id="Fill-82" fill="#E3000F"></path>
            <path d="M225.2061,19.6056 C225.2061,19.6056 173.9771,-2.4784 120.0031,42.3456 C120.0031,42.3456 59.7101,6.0446 2.6501,64.6076 C-2.6839,70.0806 4.6041,63.1386 11.9401,65.0956 C19.2791,67.0526 24.6601,77.3246 31.0171,76.8346 C37.3741,76.3456 49.1961,73.3436 55.9641,81.2366 C64.7691,91.5116 99.0091,94.9356 118.0851,73.4126" id="Stroke-83" stroke="#000000" stroke-width="0.703"></path>
            <path d="M113.1947,47.9766 C113.1947,47.9766 82.3807,26.4556 27.1067,54.8266" id="Stroke-84" stroke="#000000" stroke-width="0.703"></path>
            <path d="M114.1712,56.7774 C114.1712,56.7774 85.3122,43.0864 47.6482,62.6484" id="Stroke-85" stroke="#000000" stroke-width="0.703"></path>
            <path d="M114.1712,60.2051 C114.1712,60.2051 82.3802,62.6521 67.7022,74.8791" id="Stroke-86" stroke="#000000" stroke-width="0.703"></path>
            <path d="M117.1087,65.0957 C117.1087,65.0957 95.0947,69.0097 88.7377,77.3247" id="Stroke-87" stroke="#000000" stroke-width="0.703"></path>
            <path d="M112.7064,70.4786 C112.7064,70.4786 104.8804,72.9196 98.5184,77.8126" id="Stroke-88" stroke="#000000" stroke-width="0.703"></path>
            <path d="M197.1516,26.2853 C198.2586,26.5903 198.6556,27.4903 198.6556,27.4903 C198.0266,41.0623 186.9636,39.9453 186.9636,39.9453 C181.8566,39.8183 177.4466,33.4843 179.6866,30.4983 C190.4116,16.1973 200.5966,28.0413 200.5966,28.0413" id="Stroke-89" stroke="#000000" stroke-width="0.703"></path>
            <path d="M187.3469,23.8185 C187.3469,23.8185 182.9019,31.4355 191.1459,31.7425 C194.3609,31.8635 197.1769,28.1875 196.5009,25.0935" id="Stroke-90" stroke="#000000" stroke-width="0.703"></path>
            <path d="M189.7492,23.6076 C189.7492,23.6076 187.5262,27.1136 190.5482,27.6176 C192.9522,28.0176 193.9582,26.8146 194.8582,24.5096" id="Stroke-91" stroke="#000000" stroke-width="0.703"></path>
            <path d="M163.223884,44.7208 C163.223884,44.7208 163.1789,59.9768 167.8179,68.8908 C172.4969,77.8868 185.1749,83.8518 187.9099,83.0978" id="Stroke-92" stroke="#000000" stroke-width="0.703"></path>
            <path d="M156.4524,52.6563 C156.4524,52.6563 156.7964,77.5603 166.5284,80.1663" id="Stroke-93" stroke="#000000" stroke-width="0.703"></path>
            <path d="M227.6827,37.1466 C227.6827,37.1466 226.1907,46.8576 216.6927,61.3826 C197.5307,90.6956 112.4037,138.6326 104.5227,187.0806 C96.9147,233.8646 137.6907,255.3776 171.6007,242.0386 C211.7377,226.2516 269.1127,218.0826 283.4897,239.5006 C283.4897,239.5006 274.2297,238.5146 261.6727,239.9756 C252.6067,241.0286 242.1277,247.0926 239.4777,254.2846 C235.3917,265.3816 216.6927,261.2006 220.0757,264.3056 C223.4557,267.4036 247.6947,289.1026 256.1517,292.4876 C264.6047,295.8686 271.0867,296.4306 272.7787,295.3016 C274.4677,294.1766 270.5227,303.7586 262.0697,302.6316 C253.6147,301.5026 229.9407,292.7686 221.2037,294.1766 C209.6277,296.0416 188.2297,301.7866 172.7297,292.7686 C157.2297,283.7496 149.6167,270.7866 138.9057,268.5286 C128.2007,266.2746 96.5477,253.4696 87.3307,241.7566 L67.7317,218.0196 C32.2197,156.5786 79.7217,89.5666 79.7217,89.5666" id="Stroke-94" stroke="#000000" stroke-width="0.703"></path>
            <path d="M66.476,111.2675 C66.476,111.2675 50.197,104.4065 39.984,121.9785 C26.068,145.9215 50.124,177.6975 55.572,186.7775 C55.572,186.7775 53.755,171.3415 53.792,169.6075" id="Stroke-95" stroke="#000000" stroke-width="0.703"></path>
            <path d="M63.3745,117.4706 C63.3745,117.4706 47.3125,114.0856 43.3665,132.6876 C39.4195,151.2886 48.1985,166.6756 50.2435,169.8886" id="Stroke-96" stroke="#000000" stroke-width="0.703"></path>
            <path d="M61.4058,125.078 C61.4058,125.078 53.5108,124.23 49.8468,132.971 C46.1848,141.705 49.5658,148.187 48.7218,153.262" id="Stroke-97" stroke="#000000" stroke-width="0.703"></path>
            <path d="M109.0306,172.9919 C109.0306,172.9919 114.6696,175.2459 116.3606,187.3609 C118.0506,199.4819 127.9156,214.7009 136.3706,214.4199 C144.8256,214.1349 144.8256,215.8279 139.7516,218.6459 C134.6846,221.4629 114.7476,229.9199 107.9856,219.2089" id="Stroke-98" stroke="#000000" stroke-width="0.703"></path>
            <path d="M106.4974,178.0642 C106.4974,178.0642 110.7244,182.5702 111.0074,191.5912 C111.2884,200.6112 118.8954,213.5722 123.4074,215.5462" id="Stroke-99" stroke="#000000" stroke-width="0.703"></path>
            <path d="M104.2396,190.4626 C104.2396,190.4626 107.3446,195.2536 109.0306,204.8376 C110.7236,214.4196 116.0796,214.7006 116.0796,214.7006" id="Stroke-100" stroke="#000000" stroke-width="0.703"></path>
            <path d="M121.9974,236.1188 C121.9974,236.1188 138.3434,236.6828 145.1084,234.1458 C151.8744,231.6088 159.7654,234.4278 156.9444,237.5288 C154.1264,240.6308 149.6164,245.1368 149.6164,245.1368" id="Stroke-101" stroke="#000000" stroke-width="0.703"></path>
            <path d="M167.6536,264.3062 C167.6536,264.3062 194.9936,246.8292 220.0756,264.3062" id="Stroke-102" stroke="#000000" stroke-width="0.703"></path>
            <path d="M180.054,272.4742 C180.054,272.4742 190.482,278.3942 200.064,275.2962 C209.65,272.1952 214.437,275.2962 218.947,276.7032" id="Stroke-103" stroke="#000000" stroke-width="0.703"></path>
            <path d="M172.7297,275.2964 C172.4487,276.1404 183.7197,283.7494 198.0907,282.6204 C212.4657,281.4954 226.2747,281.7764 230.7887,283.7494" id="Stroke-104" stroke="#000000" stroke-width="0.703"></path>
            <path d="M161.4543,276.4214 C161.4543,276.4214 180.6203,293.6104 199.7843,290.7924 C218.9463,287.9764 240.6493,287.6964 248.8213,292.7694" id="Stroke-105" stroke="#000000" stroke-width="0.703"></path>
            <path d="M246.0049,83.6484 C243.7489,87.8784 224.5849,94.3594 213.8739,90.9764 C203.1649,87.5954 191.0459,87.5954 191.0459,87.5954" id="Stroke-106" stroke="#000000" stroke-width="0.703"></path>
            <path d="M181.1829,96.33 C181.1829,96.33 190.4819,94.643 206.8309,98.588 C223.1749,102.531 240.3669,100.277 244.5949,95.207" id="Stroke-107" stroke="#000000" stroke-width="0.703"></path>
            <path d="M171.0364,104.5039 C171.0364,104.5039 177.8004,100.2769 195.5574,104.5039 C213.3114,108.7309 225.4314,108.1659 229.3764,105.9139" id="Stroke-108" stroke="#000000" stroke-width="0.703"></path>
            <path d="M165.9622,109.0136 C165.9622,109.0136 177.8002,107.6056 186.2552,110.4236" id="Stroke-109" stroke="#000000" stroke-width="0.703"></path>
            <path d="M197.2492,110.7031 C197.2492,110.7031 219.2312,117.7501 225.1452,113.2401" id="Stroke-110" stroke="#000000" stroke-width="0.703"></path>
            <path d="M158.9172,114.6523 C158.9172,114.6523 164.8372,111.8323 172.4482,116.9023 C180.0542,121.9783 202.0422,128.4613 205.4192,124.5133 C208.8042,120.5723 198.6592,117.4703 211.6182,120.0043 C222.1672,122.0683 237.7182,123.4163 241.4952,117.7503 C244.3122,113.5233 235.0112,116.3413 237.5482,112.9613 C240.0852,109.5783 260.6572,110.7033 264.0442,92.6663" id="Stroke-111" stroke="#000000" stroke-width="0.703"></path>
            <path d="M271.3682,69.8379 C271.3682,69.8379 251.6412,78.2929 245.1572,77.7309 C238.6752,77.1679 245.7222,83.3649 252.2042,83.0879 C258.6842,82.8049 262.9132,79.1429 260.9402,81.9589 C258.9722,84.7769 251.4402,89.1429 260.9402,87.8789 C269.3972,86.7499 273.0592,84.2149 274.1882,79.7029 C275.5972,74.0669 271.3682,69.8379 271.3682,69.8379 Z" id="Stroke-112" stroke="#000000" stroke-width="0.703"></path>
            <path d="M245.1573,77.7304 C242.6223,75.7594 242.3393,67.5844 242.3393,67.5844 C235.5753,64.2014 243.4993,58.0824 258.6843,59.1264 C275.0323,60.2554 269.6783,66.1754 269.6783,66.1754 C269.6783,66.1754 279.8233,63.6404 279.5443,75.1954 C279.3333,83.6624 275.5963,87.0334 272.7783,87.0334 C267.4253,87.0334 268.2703,93.5134 258.9713,92.9494 C245.0423,92.1054 245.4403,81.3944 245.4403,81.3944" id="Stroke-113" stroke="#000000" stroke-width="0.703"></path>
            <path d="M269.6788,66.1758 C269.6788,68.3538 263.4968,70.1168 255.8658,70.1168 C248.2418,70.1168 242.0578,68.3538 242.0578,66.1758 C242.0578,63.9958 248.2418,62.2328 255.8658,62.2328 C263.4968,62.2328 269.6788,63.9958 269.6788,66.1758" id="Fill-114" fill="#FFFFFF"></path>
            <path d="M269.6788,66.1758 C269.6788,68.3538 263.4968,70.1168 255.8658,70.1168 C248.2418,70.1168 242.0578,68.3538 242.0578,66.1758 C242.0578,63.9958 248.2418,62.2328 255.8658,62.2328 C263.4968,62.2328 269.6788,63.9958 269.6788,66.1758 Z" id="Stroke-115" stroke="#000000" stroke-width="1.406"></path>
            <path d="M256.9229,54.8106 C256.9229,54.8106 248.6279,46.8926 257.2999,33.6976 C265.9699,20.4996 267.4799,11.8306 261.4479,0.1406" id="Stroke-116" stroke="#000000" stroke-width="0.703"></path>
            <path d="M261.8232,52.5489 C261.8232,52.5489 257.3002,44.6309 265.5932,35.5819 C277.2612,22.8519 269.7412,17.4829 268.9892,12.2029" id="Stroke-117" stroke="#000000" stroke-width="0.703"></path>
        </g>
    </g>
</svg>